<svg width="15" height="15" viewBox="0 0 15 15" fill="none" xmlns="http://www.w3.org/2000/svg">
<g clip-path="url(#clip0)">
<path d="M14.467 2.06921C14.1447 2.03982 13.8597 2.27728 13.8303 2.59954L13.7527 3.45117C12.4355 1.38264 10.149 0 7.49976 0C4.64973 0 2.13808 1.62662 0.891266 4.06799C0.744078 4.35618 0.858395 4.70912 1.14659 4.85631C1.43484 5.0035 1.78772 4.88921 1.93491 4.60099C2.99009 2.53485 5.10905 1.17188 7.49976 1.17188C9.67878 1.17188 11.6452 2.30657 12.7718 4.08422L11.9364 3.48753C11.673 3.29947 11.3071 3.36047 11.119 3.62379C10.931 3.88714 10.992 4.25306 11.2553 4.44114L13.7887 6.25055C14.16 6.51524 14.6722 6.27293 14.7128 5.82694L14.9973 2.70595C15.0267 2.38365 14.7893 2.09859 14.467 2.06921Z" fill="white"/>
<path d="M13.853 10.1436C13.5647 9.99647 13.2118 10.1108 13.0646 10.3989C12.0095 12.4651 9.8905 13.8281 7.49979 13.8281C5.32077 13.8281 3.35431 12.6934 2.22772 10.9157L3.06318 11.5124C3.32653 11.7005 3.69245 11.6395 3.88054 11.3761C4.06859 11.1128 4.0076 10.7469 3.74428 10.5588L1.21083 8.74939C0.844062 8.48736 0.327793 8.7224 0.286777 9.17299L0.00227513 12.294C-0.0271096 12.6163 0.210342 12.9013 0.532578 12.9307C0.855254 12.96 1.13993 12.7223 1.16929 12.4004L1.24692 11.5487C2.56405 13.6173 4.8505 14.9999 7.49979 14.9999C10.3498 14.9999 12.8615 13.3733 14.1083 10.9319C14.2555 10.6438 14.1412 10.2908 13.853 10.1436Z" fill="white"/>
</g>
<defs>
<clipPath id="clip0">
<rect width="15" height="15" fill="white"/>
</clipPath>
</defs>
</svg>
